<svg width="229" height="138" viewBox="0 0 229 138" fill="none" xmlns="http://www.w3.org/2000/svg">
<circle cx="112" cy="69" r="67" fill="white" stroke="black" stroke-width="4"/>
<rect x="2" y="47" width="221" height="48" fill="white" stroke="black" stroke-width="4"/>
<path d="M18.76 81.48C16.5467 81.48 14.64 80.9267 13.04 79.82C11.44 78.7 10.2067 77.1533 9.34 75.18C8.47333 73.1933 8.04 70.8933 8.04 68.28C8.04 65.4933 8.50667 63.1467 9.44 61.24C10.3867 59.3333 11.6667 57.8933 13.28 56.92C14.9067 55.9333 16.7333 55.44 18.76 55.44C21.44 55.44 23.5933 56.1133 25.22 57.46C26.86 58.7933 27.9867 60.5333 28.6 62.68L25.24 63.36C24.72 61.8 23.8867 60.56 22.74 59.64C21.6067 58.7067 20.28 58.24 18.76 58.24C17.44 58.24 16.22 58.62 15.1 59.38C13.9933 60.1267 13.1 61.2467 12.42 62.74C11.74 64.2333 11.4 66.08 11.4 68.28C11.4 70.28 11.6667 72.06 12.2 73.62C12.7467 75.18 13.56 76.4067 14.64 77.3C15.7333 78.1933 17.1067 78.64 18.76 78.64C20.7467 78.64 22.32 78.1067 23.48 77.04C24.6533 75.9733 25.24 74.5733 25.24 72.84H28.64C28.64 74.64 28.2267 76.1867 27.4 77.48C26.5733 78.76 25.4133 79.7467 23.92 80.44C22.44 81.1333 20.72 81.48 18.76 81.48ZM41.2113 81.48C39.5579 81.48 38.0779 81.06 36.7713 80.22C35.4779 79.3667 34.4513 78.1867 33.6913 76.68C32.9446 75.1733 32.5713 73.44 32.5713 71.48C32.5713 69.3867 32.9446 67.5867 33.6913 66.08C34.4379 64.5733 35.4579 63.42 36.7513 62.62C38.0579 61.8067 39.5446 61.4 41.2113 61.4C42.6646 61.4 43.9046 61.6933 44.9313 62.28C45.9579 62.8667 46.7846 63.66 47.4113 64.66C48.0379 65.66 48.4713 66.7933 48.7113 68.06C48.9646 69.3133 49.0379 70.6133 48.9313 71.96H35.0913V70.04H46.8713L45.9513 70.64C45.9913 69.8533 45.9446 69.0667 45.8113 68.28C45.6913 67.4933 45.4579 66.7733 45.1113 66.12C44.7646 65.4533 44.2779 64.92 43.6513 64.52C43.0246 64.12 42.2246 63.92 41.2513 63.92C40.0246 63.92 38.9979 64.2333 38.1713 64.86C37.3446 65.4867 36.7246 66.3133 36.3113 67.34C35.8979 68.3533 35.6913 69.4533 35.6913 70.64V71.92C35.6913 73.2533 35.8913 74.4467 36.2913 75.5C36.7046 76.5533 37.3179 77.3867 38.1313 78C38.9446 78.6133 39.9713 78.92 41.2113 78.92C42.4513 78.92 43.4713 78.62 44.2713 78.02C45.0713 77.42 45.5579 76.5333 45.7313 75.36H48.9713C48.7713 76.6267 48.3179 77.72 47.6113 78.64C46.9046 79.5467 46.0046 80.2467 44.9113 80.74C43.8179 81.2333 42.5846 81.48 41.2113 81.48ZM55.1181 81V61.84H58.2381V81H55.1181ZM57.2781 72.36C57.2781 69.9333 57.5115 67.92 57.9781 66.32C58.4448 64.7067 59.1248 63.5067 60.0181 62.72C60.9248 61.92 62.0248 61.52 63.3181 61.52C63.7448 61.52 64.1315 61.5533 64.4781 61.62C64.8381 61.6733 65.1981 61.76 65.5581 61.88L65.3581 64.96C64.9848 64.84 64.5781 64.74 64.1381 64.66C63.6981 64.5667 63.3048 64.52 62.9581 64.52C61.8248 64.52 60.9115 64.8467 60.2181 65.5C59.5248 66.14 59.0181 67.0467 58.6981 68.22C58.3915 69.3933 58.2381 70.7733 58.2381 72.36H57.2781ZM76.2113 81.48C74.5579 81.48 73.0779 81.06 71.7713 80.22C70.4779 79.3667 69.4513 78.1867 68.6913 76.68C67.9446 75.1733 67.5713 73.44 67.5713 71.48C67.5713 69.3867 67.9446 67.5867 68.6913 66.08C69.4379 64.5733 70.4579 63.42 71.7513 62.62C73.0579 61.8067 74.5446 61.4 76.2113 61.4C77.6646 61.4 78.9046 61.6933 79.9313 62.28C80.9579 62.8667 81.7846 63.66 82.4113 64.66C83.0379 65.66 83.4713 66.7933 83.7113 68.06C83.9646 69.3133 84.0379 70.6133 83.9313 71.96H70.0913V70.04H81.8713L80.9513 70.64C80.9913 69.8533 80.9446 69.0667 80.8113 68.28C80.6913 67.4933 80.4579 66.7733 80.1113 66.12C79.7646 65.4533 79.2779 64.92 78.6513 64.52C78.0246 64.12 77.2246 63.92 76.2513 63.92C75.0246 63.92 73.9979 64.2333 73.1713 64.86C72.3446 65.4867 71.7246 66.3133 71.3113 67.34C70.8979 68.3533 70.6913 69.4533 70.6913 70.64V71.92C70.6913 73.2533 70.8913 74.4467 71.2913 75.5C71.7046 76.5533 72.3179 77.3867 73.1313 78C73.9446 78.6133 74.9713 78.92 76.2113 78.92C77.4513 78.92 78.4713 78.62 79.2713 78.02C80.0713 77.42 80.5579 76.5333 80.7313 75.36H83.9713C83.7713 76.6267 83.3179 77.72 82.6113 78.64C81.9046 79.5467 81.0046 80.2467 79.9113 80.74C78.8179 81.2333 77.5846 81.48 76.2113 81.48ZM103.718 81V69.76C103.718 67.9333 103.278 66.5467 102.398 65.6C101.531 64.64 100.345 64.16 98.8381 64.16C97.6915 64.16 96.6981 64.4733 95.8581 65.1C95.0181 65.7267 94.3715 66.6267 93.9181 67.8C93.4648 68.96 93.2381 70.3467 93.2381 71.96H92.0381C92.0381 69.7333 92.3315 67.8333 92.9181 66.26C93.5048 64.6867 94.3581 63.4867 95.4781 62.66C96.6115 61.82 97.9848 61.4 99.5981 61.4C101.105 61.4 102.391 61.74 103.458 62.42C104.538 63.0867 105.365 64.0467 105.938 65.3C106.511 66.5533 106.798 68.04 106.798 69.76V81H103.718ZM90.1181 81V61.88H92.7981L93.2381 66.28V81H90.1181ZM120.751 81L129.391 55.88H133.191L141.631 81H138.351L136.231 74.56H126.231L124.031 81H120.751ZM127.031 72.12H135.431L131.231 59.68L127.031 72.12ZM146.72 81V53.72H149.84V81H146.72ZM149.36 70.04L159.12 61.88H163.48L149.36 73.36V70.04ZM160.08 81L151 68.92L154.16 68.36L163.92 81H160.08ZM165.474 61.88H168.954L175.194 78.28H174.474L179.314 61.88H182.514L175.314 84.84C174.714 86.76 173.914 88.24 172.914 89.28C171.914 90.32 170.634 90.84 169.074 90.84C168.234 90.84 167.434 90.72 166.674 90.48C165.927 90.24 165.154 89.8933 164.354 89.44V86.56C165.06 87.12 165.74 87.52 166.394 87.76C167.06 88 167.754 88.12 168.474 88.12C169.274 88.12 169.94 87.8667 170.474 87.36C171.02 86.8533 171.474 86.2 171.834 85.4C172.194 84.6133 172.5 83.7867 172.754 82.92L173.314 81L165.474 61.88ZM199.107 81L198.707 76.8V68.6C198.707 66.88 198.34 65.6467 197.607 64.9C196.873 64.14 195.773 63.76 194.307 63.76C193.48 63.76 192.727 63.88 192.047 64.12C191.38 64.36 190.847 64.7333 190.447 65.24C190.06 65.7333 189.867 66.3733 189.867 67.16H186.387C186.387 65.7733 186.727 64.66 187.407 63.82C188.087 62.9667 189.02 62.3533 190.207 61.98C191.407 61.5933 192.773 61.4 194.307 61.4C195.773 61.4 197.073 61.6467 198.207 62.14C199.34 62.6333 200.227 63.42 200.867 64.5C201.507 65.5667 201.827 66.96 201.827 68.68V81H199.107ZM192.587 81.48C191.013 81.48 189.713 81.2 188.687 80.64C187.66 80.08 186.893 79.3533 186.387 78.46C185.88 77.5667 185.627 76.6267 185.627 75.64C185.627 74.3467 185.947 73.2933 186.587 72.48C187.24 71.6667 188.127 71.0733 189.247 70.7C190.367 70.3133 191.627 70.12 193.027 70.12C194.027 70.12 195.027 70.22 196.027 70.42C197.04 70.62 198.027 70.8933 198.987 71.24V73.2C198.187 72.88 197.28 72.6267 196.267 72.44C195.267 72.2533 194.347 72.16 193.507 72.16C192.227 72.16 191.147 72.4267 190.267 72.96C189.387 73.48 188.947 74.3733 188.947 75.64C188.947 76.5733 189.28 77.3733 189.947 78.04C190.627 78.7067 191.707 79.04 193.187 79.04C194.227 79.04 195.16 78.8 195.987 78.32C196.827 77.8267 197.487 77.2133 197.967 76.48C198.46 75.7467 198.707 75.0133 198.707 74.28H199.467C199.467 75.56 199.187 76.7467 198.627 77.84C198.08 78.9333 197.293 79.8133 196.267 80.48C195.24 81.1467 194.013 81.48 192.587 81.48ZM209.298 81V61.84H212.418V81H209.298ZM211.458 72.36C211.458 69.9333 211.691 67.92 212.158 66.32C212.624 64.7067 213.304 63.5067 214.198 62.72C215.104 61.92 216.204 61.52 217.498 61.52C217.924 61.52 218.311 61.5533 218.658 61.62C219.018 61.6733 219.378 61.76 219.738 61.88L219.538 64.96C219.164 64.84 218.758 64.74 218.318 64.66C217.878 64.5667 217.484 64.52 217.138 64.52C216.004 64.52 215.091 64.8467 214.398 65.5C213.704 66.14 213.198 67.0467 212.878 68.22C212.571 69.3933 212.418 70.7733 212.418 72.36H211.458Z" fill="black"/>
</svg>
